#!OML:ASF Y:\EmotionMaleHayes\Project 1\Capture day 1\Session 1\Male1.ASF
:FULLY-SPECIFIED
:DEGREES
989
root 32.8153 16.9035 -18.1453 224.47 85.5152 229.942
lowerback 9.93364 0.529653 2.26141
upperback 2.73669 1.11406 2.18046
thorax -2.72524 0.594596 0.849327
lowerneck -20.7484 -0.702507 2.37384
upperneck 26.5765 -1.87868 1.21971
head 12.2198 -0.293375 -0.220064
rclavicle -3.80176e-015 -1.70955e-014
rhumerus -32.9327 7.05904 -85.675
rradius 47.8343
rwrist -3.40842
rhand -12.5415 -29.8949
rfingers 7.12502
rthumb 13.5352 -59.435
lclavicle -3.80176e-015 -1.70955e-014
lhumerus -37.3026 23.7395 69.4138
lradius 13.1347
lwrist -55.6694
lhand -0.206712 -17.8179
lfingers 7.12502
lthumb 25.3924 10.5112
rfemur -0.794763 -1.03321 26.6072
rtibia 17.3113
rfoot -15.8661 -3.44136
rtoes 19.6256
lfemur -0.855164 3.78799 -11.308
ltibia 62.1939
lfoot -1.36113 1.39191
ltoes 4.24444
990
root 32.9433 16.9184 -18.1206 229.857 85.3286 235.509
lowerback 10.2746 0.694722 2.62655
upperback 2.69562 1.39079 2.23894
thorax -2.94846 0.730021 0.666026
lowerneck -19.9229 -0.716863 2.04712
upperneck 26.0232 -1.93757 1.88063
head 11.8514 -0.278263 0.0761296
rclavicle -1.12065e-014 -2.06736e-014
rhumerus -32.5834 7.42201 -85.5369
rradius 48.46
rwrist -3.40628
rhand -12.9768 -29.139
rfingers 7.12502
rthumb 13.1156 -58.7065
lclavicle -1.12065e-014 -2.06736e-014
lhumerus -37.5324 22.0713 69.7097
lradius 13.6594
lwrist -54.98
lhand 0.715946 -18.0479
lfingers 7.12502
lthumb 26.2759 10.1525
rfemur 0.10062 -0.594698 27.3729
rtibia 16.9541
rfoot -15.9185 -3.59462
rtoes 19.1531
lfemur -2.19325 4.26878 -10.5839
ltibia 62.494
lfoot -1.75765 1.09489
ltoes 4.19076
991
root 32.9612 16.976 -18.0454 255.932 81.7324 261.703
lowerback 11.9019 0.847622 6.37203
upperback 2.34018 2.2577 3.51385
thorax -4.12155 1.12907 -0.254879
lowerneck -19.8735 -0.867087 1.96495
upperneck 26.1179 -2.13602 1.93858
head 11.88 -0.363337 0.0810796
rclavicle 2.5842e-015 7.55382e-015
rhumerus -32.1382 7.81994 -85.2966
rradius 49.3733
rwrist -3.37935
rhand -12.3585 -29.9569
rfingers 7.12502
rthumb 13.7115 -59.4852
lclavicle 2.5842e-015 7.55382e-015
lhumerus -37.8899 21.1017 69.699
lradius 14.1335
lwrist -54.6349
lhand 1.23628 -18.625
lfingers 7.12502
lthumb 26.774 9.50015
rfemur -0.641978 2.07151 33.6167
rtibia 18.1686
rfoot -16.3876 -5.28882
rtoes 18.4505
lfemur -4.69419 6.23056 -4.22745
ltibia 63.7505
lfoot -1.93898 -0.205861
ltoes 1.02517
992
root 33.2386 16.9392 -18.0958 234.146 85.7757 240.077
lowerback 10.0387 1.0459 2.4694
upperback 2.94485 1.8215 2.11564
thorax -2.5576 0.95087 0.580785
lowerneck -19.8409 -0.959139 1.84118
upperneck 26.0714 -2.26814 2.09167
head 11.8595 -0.415306 0.138209
rclavicle -5.06901e-015 3.37934e-015
rhumerus -31.4815 8.31792 -85.0873
rradius 49.9847
rwrist -3.87771
rhand -12.4923 -29.9797
rfingers 7.12502
rthumb 13.5825 -59.5167
lclavicle -5.06901e-015 3.37934e-015
lhumerus -38.2037 21.2982 69.0318
lradius 14.4029
lwrist -55.2521
lhand 0.363079 -19.6167
lfingers 7.12502
lthumb 25.9381 8.6336
rfemur 2.0675 -0.636856 27.2775
rtibia 15.9804
rfoot -16.4005 -2.75964
rtoes 18.407
lfemur -4.21505 5.07281 -10.6657
ltibia 61.6077
lfoot -2.8802 0.71082
ltoes -1.67329
993
root 33.3723 16.9565 -18.0811 244.415 85.1923 250.306
lowerback 10.1139 1.22461 3.42456
upperback 2.88798 2.16902 2.26182
thorax -2.62568 1.12225 0.153095
lowerneck -20.1635 -1.27331 1.44173
upperneck 26.4135 -2.70886 2.4756
head 12.0718 -0.587135 0.279474
rclavicle -1.31695e-015 -4.77083e-015
rhumerus -30.8846 8.6633 -84.8725
rradius 50.4371
rwrist -4.06217
rhand -12.5909 -29.826
rfingers 7.12502
rthumb 13.4876 -59.3692
lclavicle -1.31695e-015 -4.77083e-015
lhumerus -38.3961 20.0889 69.1623
lradius 14.8195
lwrist -53.8767
lhand -0.0809215 -20.3361
lfingers 7.12502
lthumb 25.5129 7.97572
rfemur 2.83941 -0.468671 28.4572
rtibia 15.297
rfoot -16.5261 -2.4013
rtoes 18.8353
lfemur -5.59225 5.59888 -9.45623
ltibia 61.3649
lfoot -3.65693 0.491897
ltoes -1.65566
994
root 33.5092 16.9683 -18.0705 249.055 85.0826 254.925
lowerback 10.2957 1.39151 3.71771
upperback 2.70255 2.43201 2.24425
thorax -2.89991 1.24399 -0.0692294
lowerneck -20.1054 -1.37008 1.83294
upperneck 26.6838 -2.79678 1.87779
head 12.1484 -0.657614 -0.0238453
rclavicle -1.18401e-014 -8.94531e-015
rhumerus -30.6149 9.01498 -84.6734
rradius 51.0406
rwrist -4.22572
rhand -12.5933 -29.9176
rfingers 7.12502
rthumb 13.4852 -59.461
lclavicle -1.18401e-014 -8.94531e-015
lhumerus -38.7526 17.8906 69.8116
lradius 15.326
lwrist -51.0431
lhand -0.512673 -20.7448
lfingers 7.12502
lthumb 25.0992 7.62556
rfemur 3.59745 -0.501893 28.7675
rtibia 14.7798
rfoot -16.6814 -1.95512
rtoes 18.8942
lfemur -6.94825 5.86476 -9.14066
ltibia 60.806
lfoot -4.15214 0.555769
ltoes -1.62064
995
root 33.6514 16.975 -18.0614 251.832 85.1094 257.687
lowerback 10.2086 1.49796 3.78855
upperback 2.6538 2.57208 2.18665
thorax -2.89293 1.31137 -0.183606
lowerneck -19.7125 -1.40478 1.79492
upperneck 26.5253 -2.82144 1.91105
head 12.0083 -0.673246 -0.00604809
rclavicle 1.44864e-014 -7.15625e-015
rhumerus -30.2011 9.48613 -84.4795
rradius 51.6123
rwrist -4.42332
rhand -12.6538 -30.1571
rfingers 7.12502
rthumb 13.4269 -59.7044
lclavicle 1.44864e-014 -7.15625e-015
lhumerus -39.0333 16.5481 70.0362
lradius 15.5478
lwrist -48.7578
lhand -1.44572 -21.5432
lfingers 7.12502
lthumb 24.2049 6.94926
rfemur 4.36248 -0.62023 28.8139
rtibia 14.3566
rfoot -16.969 -1.48553
rtoes 18.9518
lfemur -8.3114 5.96669 -9.08116
ltibia 60.2327
lfoot -4.70038 0.433709
ltoes -1.92659
996
root 33.7869 16.9854 -18.0507 258.407 84.2204 264.249
lowerback 9.84153 1.57949 4.88531
upperback 2.92749 2.77545 2.35373
thorax -2.35545 1.42909 -0.626971
lowerneck -19.8023 -1.41285 1.61994
upperneck 26.3106 -2.85769 2.16982
head 11.9506 -0.680338 0.112945
rclavicle 7.8023e-015 1.13307e-014
rhumerus -28.9866 9.93171 -84.2094
rradius 51.6149
rwrist -4.55133
rhand -12.8824 -30.0338
rfingers 7.12502
rthumb 13.2065 -59.5955
lclavicle 7.8023e-015 1.13307e-014
lhumerus -38.7441 15.5571 70.3128
lradius 15.6406
lwrist -46.5596
lhand -2.76917 -22.5743
lfingers 7.12502
lthumb 22.9355 6.08153
rfemur 5.02394 -0.653331 30.0287
rtibia 14.0039
rfoot -17.2275 -1.01293
rtoes 19.0915
lfemur -9.20014 6.20644 -7.8011
ltibia 59.2901
lfoot -5.64504 0.238816
ltoes -2.86883
997
root 33.9141 17 -18.0422 263.993 83.001 269.671
lowerback 9.28065 1.66961 6.32269
upperback 3.2928 2.9926 2.57048
thorax -1.5917 1.57217 -1.19226
lowerneck -20.3601 -1.29508 1.70379
upperneck 26.2285 -2.75105 2.17262
head 12.0291 -0.627514 0.112121
rclavicle 6.93262e-015 1.42131e-014
rhumerus -27.2224 10.5339 -83.8909
rradius 51.1
rwrist -4.81565
rhand -13.0813 -29.8972
rfingers 7.12502
rthumb 13.0149 -59.4712
lclavicle 6.93262e-015 1.42131e-014
lhumerus -38.3001 14.5097 70.7592
lradius 15.9718
lwrist -44.1506
lhand -4.1138 -23.3421
lfingers 7.12502
lthumb 21.6447 5.4681
rfemur 5.40336 -0.696973 31.5488
rtibia 13.7644
rfoot -17.416 -0.518232
rtoes 19.1225
lfemur -10.509 6.71948 -6.17676
ltibia 58.7751
lfoot -6.82568 0.121359
ltoes -5.3474
